PathFileType	4	(X/Y/Z)	Patient4_TMGait_0pt2_02_left_14.trc.trc
DataRate	CameraRate	NumFrames	NumMarkers	Units	OrigDataRate	OrigDataStartFrame	OrigNumFrames
43.613707165109	43.613707165109	4	33	mm	43.613707165109	53	       141
Frame#	Time	R.Midfoot.Superior			Sacral			L.Shoulder			Chest			R.Shoulder			Neck			R.ASIS			L.ASIS			R.Thigh.Superior			R.Thigh.Lateral			R.Thigh.Inferior			R.Patella			L.Thigh.Superior			L.Thigh.Lateral			L.Thigh.Inferior			L.Patella			L.Shank.Superior			L.Shank.Lateral			L.Shank.Inferior			R.Shank.Superior			R.Shank.Lateral			R.Shank.Inferior			R.Heel			R.Midfoot.Lateral			R.Toe			L.Heel			L.Midfoot.Lateral			L.Midfoot.Superior			L.Toe			L.Elbow			L.Wrist			R.Elbow			R.Wrist			
		X1	Y1	Z1	X2	Y2	Z2	X3	Y3	Z3	X4	Y4	Z4	X5	Y5	Z5	X6	Y6	Z6	X7	Y7	Z7	X8	Y8	Z8	X9	Y9	Z9	X10	Y10	Z10	X11	Y11	Z11	X12	Y12	Z12	X13	Y13	Z13	X14	Y14	Z14	X15	Y15	Z15	X16	Y16	Z16	X17	Y17	Z17	X18	Y18	Z18	X19	Y19	Z19	X20	Y20	Z20	X21	Y21	Z21	X22	Y22	Z22	X23	Y23	Z23	X24	Y24	Z24	X25	Y25	Z25	X26	Y26	Z26	X27	Y27	Z27	X28	Y28	Z28	X29	Y29	Z29	X30	Y30	Z30	X31	Y31	Z31	X32	Y32	Z32	X33	Y33	Z33	

53	33.162285714286	804.401301003370	127.375488735719	591.626809257452	817.628030185530	998.980123403912	412.967797058504	977.789648831474	1425.117531465318	214.263084875244	1098.015333998327	1353.366061186566	361.798295661826	1038.747147061884	1429.084809171771	543.104518913742	977.707527322393	1486.548217425460	373.380645694692	1052.277898445039	928.367609932009	512.716911928975	1020.838592266177	953.171770710484	241.497334673823	1080.524626553780	723.247017705369	496.792172746057	1000.941096929269	622.257044492796	574.599709714929	1072.700511477429	555.860918892751	497.197338841976	1059.911843194257	449.956269973258	524.288839985131	1088.403183934775	752.156582120362	285.864633227095	1016.377042936285	620.644379581431	232.442759578798	1108.966863891893	556.833355912826	300.564547739842	1116.243621611368	482.698776797669	310.703307467786	1080.386960437106	407.857231302315	307.645251199418	981.642459335266	299.666805567944	261.217442795263	1019.487363231922	187.666858544366	336.310284896354	980.236425096626	388.610491731054	539.663689516537	862.032969302182	357.081647005115	607.965514463779	842.550071100849	245.498439744745	565.921903893527	637.573127042194	185.401982155663	549.500970707929	697.073575532264	130.698191022381	625.194403166388	867.880635043211	33.013653451952	621.907836363897	878.845068476265	40.174302279263	382.686370755758	950.821019398099	36.289534663148	300.783069582853	1036.123495248308	96.037545648780	325.683072198473	1162.828321831127	40.841993549806	293.385207076607	999.854542486392	1081.212072548211	80.269777617872	1127.409626974038	852.722951889852	78.236233521896	1095.322444868581	1079.682059387172	653.641006287544	1256.863867877954	878.267018485900	650.505427949005	
54	33.185214285714	809.535460145875	133.429770697039	588.190217003825	816.535514275300	996.031601197158	407.795648996644	981.255485109457	1422.823872635037	211.000301480894	1098.415251024870	1350.678133036260	360.757219391034	1035.909471020045	1426.010938006815	541.207247398024	978.497105686623	1484.170584839324	370.260306053199	1050.562397119718	926.717315411382	510.114292744555	1021.907871588265	950.682978796905	238.492089740281	1087.228984517212	724.942090773305	492.796102678487	1012.953336545528	621.281566664739	571.140467220955	1087.200908841084	557.326474132378	492.976050757521	1077.380506119538	449.430459719493	520.913811077216	1090.109903527454	750.104278225163	283.136517121803	1018.989668905783	618.280998019290	230.291186932295	1111.683945041625	555.080476172578	299.272170353296	1119.160719813141	480.542480305026	309.676842277161	1081.976397533816	405.427139488967	306.897553952215	981.577183603800	298.656425227992	260.433215518707	1016.980296389928	186.389800991761	336.121833204014	995.414265324575	388.710770015381	536.040409958431	874.990290115010	361.954055587738	603.089644307519	852.189382986240	250.668621770484	562.083538879456	645.607329814038	199.242091294159	543.380114571360	701.580389698958	142.135623227170	620.215069794224	867.835241709659	33.338204827352	620.387665967811	874.307928402065	40.201750009583	382.597330005041	946.283710930111	36.251385002988	300.706749759216	1031.637672592178	95.921291045552	325.725783928423	1158.325465384248	40.639487042863	293.343040386963	1015.406521611993	1081.500194903465	73.999738857899	1155.406524356873	860.316250884101	72.776733127853	1070.733939589480	1073.860259454786	653.634171457803	1211.168841972230	856.276097950419	656.013143822300	
55	33.208142857143	816.449030377984	139.553656722547	584.256886942469	815.306217480252	993.192887148915	402.909322586786	984.698819551652	1420.561509265842	208.144011763810	1098.625674989859	1348.113987044222	360.176682013733	1032.699541290027	1423.132832493155	539.607290925590	979.143907883267	1481.875059791418	367.504016077331	1048.720647438174	925.227070713091	507.901504429734	1022.891452715143	948.308543361542	235.863261365317	1093.707204852776	727.278778684977	488.957250672978	1024.930317817467	620.980510875224	567.790796517195	1101.552028316808	559.704597925191	488.841249107429	1094.937496928138	449.978630995767	517.395692259739	1091.619745656145	748.046722790985	280.722165252796	1021.255507999432	615.988829218721	228.427647262548	1113.955266247640	553.317962425203	298.301242805142	1121.582341260573	478.422898202866	308.987373768358	1083.156838449560	403.081771086284	306.399814805312	981.242644191469	297.666923901955	259.825581459431	1014.331100088386	185.156790335164	336.022156647884	1010.997866430886	389.511383026915	532.292512555937	888.527159237669	366.852704327914	598.035618673787	862.911181187890	255.843620183396	557.900507653111	655.010091681666	211.755145702650	536.874958776275	707.921345722373	152.725170151640	614.792690957113	870.354836527069	34.060237701480	618.276068135301	869.755387727115	40.213547349563	382.505181784144	941.736908158196	36.209223434032	300.624320564632	1027.133195214854	95.802875677237	325.778477675607	1153.807215646156	40.481150391230	293.298600336145	1030.152869609655	1082.172512143306	68.451774985693	1182.582933266602	869.184386988034	68.088986707300	1045.498851058530	1069.802841532543	653.614830133911	1164.230681318310	838.881057941382	660.327243837332	
56	33.231071428571	825.378995384813	145.259852492883	580.099042837039	813.988401453313	990.665085137074	398.291516177430	988.151495864979	1418.515347887143	205.714284132115	1098.666533598132	1345.870698072271	360.076971840222	1029.128040807358	1420.666633368362	538.295334400438	979.651852184716	1479.840780165863	365.114857520456	1046.758511998488	924.073206811177	506.099196441535	1023.838462263382	946.212754041624	233.636608423459	1099.695920192744	730.304420417335	485.384557486170	1036.419575416899	621.484920484331	564.610154414251	1115.249682962739	563.036144836429	484.926968997683	1112.024470606374	451.724048819007	513.880577850783	1092.871063165400	746.077527466765	278.688044007603	1023.043382479494	613.886596670150	226.889808906272	1115.592958493537	551.615468582874	297.686287218102	1123.283764647347	476.427474203459	308.669126178248	1083.738001729077	400.929744142962	306.168663624577	980.512884530711	296.751400188017	259.404674219644	1011.480425877668	184.027510605105	336.015432735943	1026.572426042930	391.060004156027	528.593189753609	902.332284094878	371.512158263969	593.083447552648	874.648596044092	260.677190781992	553.642248246492	665.740088165745	221.991799076178	530.493034947374	716.324501525488	161.623568746656	609.338971762538	876.056201974583	35.133021462993	615.670079348084	865.183758778804	40.214522247090	382.411215873251	937.180557880920	36.169590454859	300.539609497526	1022.612472325083	95.688071810167	325.838187823244	1149.273697049976	40.356285912603	293.254887459642	1044.059070035894	1083.310271856158	63.641519424088	1208.760695038117	879.420317105335	64.156296559408	1019.936596862768	1067.705601570615	653.494964430315	1117.027296780242	826.238818864619	663.404981648278	
